<svg xmlns="http://www.w3.org/2000/svg" width="77.63" height="95.95" viewBox="0 0 77.63 95.95"><title>document</title><g id="f5c70dc3-1ad8-445f-b7c5-9f3096c1aabb" data-name="Layer 2"><g id="b6063dc7-478b-489c-960f-4f5ca0b9e7bd" data-name="Layer 1"><path d="M74.51,9.72H69.35V3.14A3.15,3.15,0,0,0,66.21,0H3.14A3.15,3.15,0,0,0,0,3.14v80a3.13,3.13,0,0,0,3.14,3.12H8.3v6.59A3.13,3.13,0,0,0,11.43,96H74.51a3.13,3.13,0,0,0,3.12-3.13v-80a3.13,3.13,0,0,0-3.12-3.13ZM3.14,83.89a.79.79,0,0,1-.8-.78v-80a.8.8,0,0,1,.8-.8H66.21a.81.81,0,0,1,.79.8V9.72H11.43A3.13,3.13,0,0,0,8.3,12.85v71Zm72.15,8.93a.8.8,0,0,1-.78.79H11.43a.8.8,0,0,1-.79-.79v-80a.8.8,0,0,1,.79-.79H74.51a.8.8,0,0,1,.78.79Z" fill="#238a74"/><path d="M58.23,19a13.21,13.21,0,1,0,13.2,13.21A13.22,13.22,0,0,0,58.23,19Zm0,24.08A10.87,10.87,0,1,1,69.09,32.24,10.87,10.87,0,0,1,58.23,43.1Z" fill="#238a74"/><path d="M63,27l-7.73,7.73-1.54-2.66a1.17,1.17,0,0,0-2,1.17l2.3,4a1.17,1.17,0,0,0,.86.58H55a1.12,1.12,0,0,0,.82-.35l8.81-8.81a1.16,1.16,0,0,0,0-1.65A1.14,1.14,0,0,0,63,27Z" fill="#238a74"/><path d="M15.68,33H34.09a1.17,1.17,0,0,0,0-2.34H15.68a1.17,1.17,0,1,0,0,2.34Z" fill="#238a74"/><path d="M15.68,40.7H37.91a1.18,1.18,0,1,0,0-2.35H15.68a1.18,1.18,0,1,0,0,2.35Z" fill="#238a74"/><path d="M15.68,48.35H41.92a1.17,1.17,0,0,0,0-2.34H15.68a1.17,1.17,0,1,0,0,2.34Z" fill="#238a74"/><path d="M15.68,56h44.1a1.18,1.18,0,1,0,0-2.35H15.68a1.18,1.18,0,1,0,0,2.35Z" fill="#238a74"/><path d="M15.68,63.68H46.11a1.18,1.18,0,1,0,0-2.35H15.68a1.17,1.17,0,1,0,0,2.34Z" fill="#238a74"/><path d="M64.89,69H15.68a1.18,1.18,0,1,0,0,2.35H64.89a1.18,1.18,0,0,0,0-2.35Z" fill="#238a74"/><path d="M15.68,79H36.1a1.18,1.18,0,0,0,0-2.35H15.68a1.18,1.18,0,1,0,0,2.35Z" fill="#238a74"/><path d="M64.89,84.3H15.68a1.17,1.17,0,1,0,0,2.34H64.89a1.17,1.17,0,0,0,0-2.34Z" fill="#238a74"/></g></g></svg>