<svg xmlns="http://www.w3.org/2000/svg" width="24" height="24" viewBox="0 0 24 24">
  <path fill="#444" fill-rule="evenodd" d="M630.00025,3883 L608.0005,3883 C607.44775,3883 607,3883.44775 607,3883.99975 L607,3906.00025 C607,3906.55225 607.44775,3907 608.0005,3907 L619.75,3907 L619.75,3898 L616.75,3898 L616.75,3894.25 L619.75,3894.25 L619.75,3891.25 C619.75,3888.15025 621.71275,3886.62475 624.478,3886.62475 C625.8025,3886.62475 626.941,3886.72375 627.2725,3886.76725 L627.2725,3890.00725 L625.35475,3890.008 C623.851,3890.008 623.5,3890.72275 623.5,3891.77125 L623.5,3894.25 L627.25,3894.25 L626.5,3898 L623.5,3898 L623.56,3907 L630.00025,3907 C630.55225,3907 631,3906.55225 631,3906.00025 L631,3883.99975 C631,3883.44775 630.55225,3883 630.00025,3883" transform="translate(-607 -3883)"/>
</svg>
