<svg xmlns="http://www.w3.org/2000/svg" width="260" height="260" viewBox="0 0 260 260"><title>favicon</title><g id="a0b3a2f0-6980-4ecb-8017-674d13fd053a" data-name="Layer 2"><g id="e890987a-9d87-4569-94cf-8412320f6d4b" data-name="Layer 1"><g id="b815090b-899a-4378-bb06-f072486b53ca" data-name="a589e957-12c1-42a1-8271-bde28d739b86"><path id="b722bbd1-5361-4d07-98ef-abd9fe3ed6d6" data-name="b3840b6f-690d-4e25-be6f-db913a4811ec" d="M100.82,144l-5.31-.43A14.08,14.08,0,0,1,84.9,155.67l2,4.12A18.62,18.62,0,0,0,100.82,144Z" fill="#e05363" fill-rule="evenodd"/><path id="f56cbc93-3854-4cf2-8405-e4cbb3f8a04d" data-name="a4e3659f-b272-4f0b-a4a1-17bd98f76acc" d="M191,127.72l-5.31-.43a14,14,0,0,1-10.61,12.13l2,4.12A18.61,18.61,0,0,0,191,127.72Z" fill="#e05363" fill-rule="evenodd"/><circle id="b3217dab-ee13-48a9-8559-f68d98d5ccd3" data-name="e6544f0a-65fb-44e5-b218-0a4d503ec84a" cx="130" cy="130" r="130" fill="#e05363"/><path id="ab867d56-f380-4e4d-bab3-1891a40ecc31" data-name="a98c720f-d44c-4a56-8a48-7df827af59b7" d="M196.33,116.4,175.1,68.79l-.58-1.08-40.81,8.45a9.46,9.46,0,0,0-12.63-4.88,9.74,9.74,0,0,0-5.62,8.56v.65l-41.17,9.1L53.06,137.2h0v3.74a19.22,19.22,0,0,0,18.37,20c.58,0,1.16,0,1.74,0h4.94a18.74,18.74,0,0,0,20.07-17.41,20.17,20.17,0,0,0,0-2.58v-4h0L78.11,92.08l38.2-8.23a9.42,9.42,0,0,0,7,5.42v74.21H99.17l-8.28,8.44v15h68.29V171.65L151,163.37h-24.3V89.16a9.48,9.48,0,0,0,7.85-9.32v-.49L171,71.82,151.44,116.4h0v4a19.17,19.17,0,0,0,18.26,20,17.78,17.78,0,0,0,1.79,0h4.94a18.76,18.76,0,0,0,19.88-17.64,20.45,20.45,0,0,0,0-2.35ZM94.87,141.21a15.45,15.45,0,0,1-14,16.72,15.18,15.18,0,0,1-2.78,0H73.17a16,16,0,0,1-16.75-15.36c0-.44,0-.88,0-1.33v-.7H94.87Zm-38.09-4L75.61,94.52,94.4,137.2Zm37.46,37h10.93l-9.66,9.42H94.34Zm28.7,0-9.76,9.42h-13l9.71-9.42Zm-5,9.42,9.76-9.42h28v9.42Zm35.6-12.73h-57l4-4.17h48.87ZM125,86a6.18,6.18,0,1,1,6.21-6.18A6.22,6.22,0,0,1,125,86Zm48.76-12.3,18.79,42.68H155ZM193,120.41a15.45,15.45,0,0,1-14,16.72,15.18,15.18,0,0,1-2.78,0h-4.94a16,16,0,0,1-16.75-15.36c0-.44,0-.88,0-1.33v-.7H193Z" fill="#fcfcfc" fill-rule="evenodd"/></g></g></g></svg>