<svg xmlns="http://www.w3.org/2000/svg" width="25" height="25" viewBox="0 0 25 25">
  <path fill="#444" fill-rule="evenodd" d="M705.875,3905.65625 L687.125,3905.65625 C686.69375,3905.65625 686.34375,3905.30625 686.34375,3904.875 L686.34375,3893.15625 L689.46875,3893.15625 C689.061719,3893.74219 688.924219,3894.83516 688.924219,3895.52891 C688.924219,3899.7125 692.335938,3903.11641 696.528906,3903.11641 C700.722656,3903.11641 704.134375,3899.7125 704.134375,3895.52891 C704.134375,3894.83516 704.035938,3893.75859 703.53125,3893.15625 L706.65625,3893.15625 L706.65625,3904.875 C706.65625,3905.30625 706.30625,3905.65625 705.875,3905.65625 M696.528906,3890.73281 C699.184375,3890.73281 701.336719,3892.88047 701.336719,3895.52891 C701.336719,3898.17812 699.184375,3900.32578 696.528906,3900.32578 C693.874219,3900.32578 691.721875,3898.17812 691.721875,3895.52891 C691.721875,3892.88047 693.874219,3890.73281 696.528906,3890.73281 M702.75,3886.125 L705.09375,3886.125 C705.525,3886.125 705.875,3886.475 705.875,3886.90625 L705.875,3889.25 C705.875,3889.68125 705.525,3890.03125 705.09375,3890.03125 L702.75,3890.03125 C702.31875,3890.03125 701.96875,3889.68125 701.96875,3889.25 L701.96875,3886.90625 C701.96875,3886.475 702.31875,3886.125 702.75,3886.125 M706.028125,3883 L686.971875,3883 C685.330469,3883 684,3884.32734 684,3885.96484 L684,3905.03516 C684,3906.67266 685.330469,3908 686.971875,3908 L706.028125,3908 C707.669531,3908 709,3906.67266 709,3905.03516 L709,3885.96484 C709,3884.32734 707.669531,3883 706.028125,3883" transform="translate(-684 -3883)"/>
</svg>
