<svg xmlns="http://www.w3.org/2000/svg" width="1440" height="387" viewBox="0 0 1440 387">
  <defs>
    <linearGradient id="line-chart-bg-a" x1="43.939%" x2="43.939%" y1="100%" y2="14.343%">
      <stop offset="0%" stop-color="#1F90FA" stop-opacity="0"/>
      <stop offset="44.931%" stop-color="#1F90FA" stop-opacity=".151"/>
      <stop offset="73.216%" stop-color="#1F90FA" stop-opacity=".344"/>
      <stop offset="100%" stop-color="#1F90FA" stop-opacity=".313"/>
    </linearGradient>
  </defs>
  <g fill="none" fill-rule="evenodd" transform="matrix(-1 0 0 1 1440 1)">
    <path stroke="#95C9BD" stroke-width="3" d="M0,110.923999 C61.9821831,83.715064 112.002194,70.1105964 150.060032,70.1105964 C207.14679,70.1105964 220.805057,94.4318296 264.84614,94.4318296 C308.887222,94.4318296 308.887222,63.5071628 389.540783,63.5071628 C470.194344,63.5071628 490.783396,130 546.066819,130 C601.350242,130 603.160517,94.4669572 650.647598,90.5172978 C698.134679,86.5676384 748.37665,114.388463 786.793848,100.219094 C825.211046,86.0497249 886.825932,46.902532 951.891878,53.5059656 C1016.95782,60.1093993 1101.62816,130.483168 1159.73488,126.568636 C1217.8416,122.654104 1179.07361,81.7310163 1249.01668,81.7310163 C1318.95974,81.7310163 1274.19437,0 1334.94333,22.5144357 C1375.44264,37.5240594 1410.46153,30.0192476 1440,0" transform="matrix(-1 0 0 1 1440 0)"/>
    <path fill="url(#line-chart-bg-a)" d="M0,110.808078 C61.9821831,83.6275778 112.002194,70.0373275 150.060032,70.0373275 C207.14679,70.0373275 220.805057,94.3331438 264.84614,94.3331438 C308.887222,94.3331438 308.887222,63.4407948 389.540783,63.4407948 C470.194344,63.4407948 490.783396,129.864144 546.066819,129.864144 C601.350242,129.864144 603.160517,94.3682347 650.647598,90.4227029 C698.134679,86.4771711 748.37665,114.268921 786.793848,100.11436 C825.211046,85.9597988 886.825932,46.8535166 951.891878,53.4500493 C1016.95782,60.0465821 1101.62816,130.346807 1159.73488,126.436366 C1217.8416,122.525925 1179.07361,81.6456035 1249.01668,81.6456035 C1318.95974,81.6456035 1274.19437,0 1334.94333,22.490907 C1375.44264,37.484845 1410.46153,29.987876 1440,0 L1440,386 L0,386 L0,110.808078 Z" opacity=".2" transform="matrix(-1 0 0 1 1440 0)"/>
  </g>
</svg>
