<svg xmlns="http://www.w3.org/2000/svg" width="25" height="25" viewBox="0 0 25 25"><title>link</title><g id="baeee061-f28a-46a9-aa1a-1c33d0746837" data-name="Layer 2"><g id="b922c8b3-d8a7-435b-afe4-1750ffbe8be4" data-name="Layer 1"><path d="M1.42,16.72a4.85,4.85,0,0,0,6.86,6.86l5.8-5.8a4.84,4.84,0,0,0,0-6.86.42.42,0,0,0-.26-.12.38.38,0,0,0-.38.38.36.36,0,0,0,.12.27,4.09,4.09,0,0,1,0,5.8l-5.81,5.8A4.1,4.1,0,0,1,2,17.25l5.54-5.54a.39.39,0,0,0,.11-.27.38.38,0,0,0-.37-.37.39.39,0,0,0-.27.11L1.42,16.72Zm9.5-9.5a4.84,4.84,0,0,0,0,6.86h0a.37.37,0,0,0,.26.12.38.38,0,0,0,.38-.38.36.36,0,0,0-.11-.26,4.08,4.08,0,0,1,0-5.81L17.25,2a4.1,4.1,0,0,1,5.8,5.8l-5.54,5.54a.39.39,0,0,0-.11.27.36.36,0,0,0,.11.26.39.39,0,0,0,.27.11.38.38,0,0,0,.26-.11l5.54-5.54a4.85,4.85,0,0,0-6.86-6.86l-5.8,5.8Z" fill="#238a74"/></g></g></svg>