<svg xmlns="http://www.w3.org/2000/svg" width="25" height="20" viewBox="0 0 25 20">
  <path fill="#444" fill-rule="evenodd" d="M670,3887.36724 C669.080469,3887.7687 668.091406,3888.04018 667.053906,3888.16247 C668.113281,3887.5372 668.926563,3886.54816 669.309375,3885.36916 C668.31875,3885.94751 667.220312,3886.36743 666.052344,3886.59431 C665.116406,3885.61296 663.783594,3885 662.308594,3885 C659.475781,3885 657.179688,3887.26033 657.179688,3890.04903 C657.179688,3890.44434 657.225,3890.82965 657.3125,3891.19958 C653.049219,3890.98885 649.270313,3888.97847 646.740625,3885.92367 C646.299219,3886.66968 646.046094,3887.5372 646.046094,3888.46241 C646.046094,3890.21361 646.951563,3891.75947 648.327344,3892.66468 C647.486719,3892.63853 646.696094,3892.41165 646.004688,3892.03326 C646.003906,3892.0548 646.003906,3892.07556 646.003906,3892.0971 C646.003906,3894.54355 647.771875,3896.58393 650.11875,3897.04768 C649.688281,3897.16305 649.235156,3897.22457 648.767187,3897.22457 C648.436719,3897.22457 648.115625,3897.19304 647.802344,3897.13459 C648.454687,3899.14036 650.349219,3900.60008 652.59375,3900.64084 C650.838281,3901.99519 648.626562,3902.80196 646.223438,3902.80196 C645.809375,3902.80196 645.401562,3902.77812 645,3902.73197 C647.269531,3904.16401 649.965625,3905 652.8625,3905 C662.296875,3905 667.455469,3897.30609 667.455469,3890.6343 C667.455469,3890.41511 667.450781,3890.19746 667.440625,3889.98058 C668.442969,3889.26918 669.3125,3888.38012 670,3887.36724" transform="translate(-645 -3885)"/>
</svg>
